<?xml version="1.0" standalone="no"?>
<?xml-stylesheet href="light.css" type="text/css"?>
<!DOCTYPE svg PUBLIC "-//W3C//DTD SVG 1.1//EN" "http://www.w3.org/Graphics/SVG/1.1/DTD/svg11.dtd">
<svg xmlns="http://www.w3.org/2000/svg" class="railroad-diagram" width="666" height="86" viewBox="0 0 666 86"><g transform="translate(.5 .5)"><path d="M 20 45 v 20 m 0 -10 h 20.5"></path><g><path d="M40 55h0"></path><path d="M626 55h0"></path><path d="M40 55h20"></path><g><path d="M60 55h0"></path><path d="M606 55h0"></path><g class="terminal"><path d="M60 55h0"></path><path d="M138 55h0"></path><rect x="60" y="44" width="78" height="22" rx="0" ry="0"></rect><text x="99" y="59">SELECT</text></g><path d="M138 55h10"></path><path d="M148 55h10"></path><g class="non-terminal"><path d="M158 55h0"></path><path d="M276 55h0"></path><rect x="158" y="44" width="118" height="22" rx="8" ry="8"></rect><text x="217" y="59">column_list</text></g><path d="M276 55h10"></path><g><path d="M286 55h0"></path><path d="M606 55h0"></path><path d="M286 55a10 10 0 0 0 10 -10v-15a10 10 0 0 1 10 -10"></path><g><path d="M306 20h280"></path></g><path d="M586 20a10 10 0 0 1 10 10v15a10 10 0 0 0 10 10"></path><path d="M286 55h20"></path><g><path d="M306 55h0"></path><path d="M586 55h0"></path><path d="M306 55h20"></path><g><path d="M326 55h0"></path><path d="M566 55h0"></path><g class="terminal"><path d="M326 55h0"></path><path d="M396 55h0"></path><rect x="326" y="44" width="70" height="22" rx="0" ry="0"></rect><text x="361" y="59">WHERE</text></g><path d="M396 55h10"></path><path d="M406 55h10"></path><g class="non-terminal"><path d="M416 55h0"></path><path d="M566 55h0"></path><rect x="416" y="44" width="150" height="22" rx="8" ry="8"></rect><text x="491" y="59">bool_expression</text></g></g><path d="M566 55h20"></path></g><path d="M586 55h20"></path></g></g><path d="M606 55h20"></path></g><path d="M 626 55 h 20 m 0 -10 v 20"></path></g></svg>