<?xml version="1.0" standalone="no"?>
<?xml-stylesheet href="light.css" type="text/css"?>
<!DOCTYPE svg PUBLIC "-//W3C//DTD SVG 1.1//EN" "http://www.w3.org/Graphics/SVG/1.1/DTD/svg11.dtd">
<svg xmlns="http://www.w3.org/2000/svg" class="railroad-diagram" width="278" height="154" viewBox="0 0 278 154"><g transform="translate(.5 .5)"><path d="M 20 21 v 20 m 0 -10 h 20.5"></path><g><path d="M40 31h0"></path><path d="M238 31h0"></path><path d="M40 31h20"></path><g><path d="M60 31h0"></path><path d="M218 31h0"></path><g class="non-terminal"><path d="M60 31h0"></path><path d="M218 31h0"></path><rect x="60" y="20" width="158" height="22" rx="8" ry="8"></rect><text x="139" y="35">select_statement</text></g></g><path d="M218 31h20"></path><path d="M40 31a10 10 0 0 1 10 10v26a10 10 0 0 0 10 10"></path><g><path d="M60 77h0"></path><path d="M218 77h0"></path><g class="non-terminal"><path d="M60 77h0"></path><path d="M218 77h0"></path><rect x="60" y="66" width="158" height="22" rx="8" ry="8"></rect><text x="139" y="81">update_statement</text></g></g><path d="M218 77a10 10 0 0 0 10 -10v-26a10 10 0 0 1 10 -10"></path><path d="M40 31a10 10 0 0 1 10 10v72a10 10 0 0 0 10 10"></path><g><path d="M60 123h0"></path><path d="M218 123h0"></path><g class="non-terminal"><path d="M60 123h0"></path><path d="M218 123h0"></path><rect x="60" y="112" width="158" height="22" rx="8" ry="8"></rect><text x="139" y="127">delete_statement</text></g></g><path d="M218 123a10 10 0 0 0 10 -10v-72a10 10 0 0 1 10 -10"></path></g><path d="M 238 31 h 20 m 0 -10 v 20"></path></g></svg>