<?xml version="1.0" standalone="no"?>
<?xml-stylesheet href="light.css" type="text/css"?>
<!DOCTYPE svg PUBLIC "-//W3C//DTD SVG 1.1//EN" "http://www.w3.org/Graphics/SVG/1.1/DTD/svg11.dtd">
<svg xmlns="http://www.w3.org/2000/svg" class="railroad-diagram" width="788" height="86" viewBox="0 0 788 86"><g transform="translate(.5 .5)"><path d="M 20 45 v 20 m 0 -10 h 20.5"></path><g><path d="M40 55h0"></path><path d="M748 55h0"></path><path d="M40 55h20"></path><g><path d="M60 55h0"></path><path d="M728 55h0"></path><g class="terminal"><path d="M60 55h0"></path><path d="M138 55h0"></path><rect x="60" y="44" width="78" height="22" rx="0" ry="0"></rect><text x="99" y="59">UPDATE</text></g><path d="M138 55h10"></path><path d="M148 55h10"></path><g class="terminal"><path d="M158 55h0"></path><path d="M212 55h0"></path><rect x="158" y="44" width="54" height="22" rx="0" ry="0"></rect><text x="185" y="59">SET</text></g><path d="M212 55h10"></path><path d="M222 55h10"></path><g class="non-terminal"><path d="M232 55h0"></path><path d="M398 55h0"></path><rect x="232" y="44" width="166" height="22" rx="8" ry="8"></rect><text x="315" y="59">update_value_list</text></g><path d="M398 55h10"></path><g><path d="M408 55h0"></path><path d="M728 55h0"></path><path d="M408 55a10 10 0 0 0 10 -10v-15a10 10 0 0 1 10 -10"></path><g><path d="M428 20h280"></path></g><path d="M708 20a10 10 0 0 1 10 10v15a10 10 0 0 0 10 10"></path><path d="M408 55h20"></path><g><path d="M428 55h0"></path><path d="M708 55h0"></path><path d="M428 55h20"></path><g><path d="M448 55h0"></path><path d="M688 55h0"></path><g class="terminal"><path d="M448 55h0"></path><path d="M518 55h0"></path><rect x="448" y="44" width="70" height="22" rx="0" ry="0"></rect><text x="483" y="59">WHERE</text></g><path d="M518 55h10"></path><path d="M528 55h10"></path><g class="non-terminal"><path d="M538 55h0"></path><path d="M688 55h0"></path><rect x="538" y="44" width="150" height="22" rx="8" ry="8"></rect><text x="613" y="59">bool_expression</text></g></g><path d="M688 55h20"></path></g><path d="M708 55h20"></path></g></g><path d="M728 55h20"></path></g><path d="M 748 55 h 20 m 0 -10 v 20"></path></g></svg>